<svg id="svg" version="1.1" xmlns="http://www.w3.org/2000/svg" xmlns:xlink="http://www.w3.org/1999/xlink" width="400" height="400" viewBox="0, 0, 400,400"><g id="svgg"><path id="path0" d="M45.068 5.065 C 44.921 5.213,44.800 92.963,44.800 200.067 L 44.800 394.800 97.800 394.800 L 150.801 394.800 150.700 199.900 L 150.600 5.000 97.968 4.899 C 69.021 4.843,45.216 4.918,45.068 5.065 M128.373 25.446 C 131.667 27.090,132.309 31.869,129.583 34.462 L 127.966 36.000 98.363 36.000 C 65.692 36.000,67.190 36.115,65.584 33.481 C 63.935 30.776,64.885 27.312,67.755 25.562 C 69.537 24.476,126.210 24.368,128.373 25.446 M251.700 30.687 C 252.305 30.778,253.295 30.778,253.900 30.687 C 254.505 30.595,254.010 30.520,252.800 30.520 C 251.590 30.520,251.095 30.595,251.700 30.687 M294.800 46.510 C 294.800 46.571,296.195 47.966,297.900 49.610 L 301.000 52.600 298.010 49.500 C 295.233 46.621,294.800 46.217,294.800 46.510 M207.385 49.700 L 205.400 51.800 207.500 49.815 C 209.451 47.971,209.783 47.600,209.485 47.600 C 209.422 47.600,208.477 48.545,207.385 49.700 M128.287 51.868 C 132.177 53.714,132.239 59.815,128.388 61.806 C 126.543 62.760,69.734 62.691,67.713 61.732 C 63.658 59.808,63.762 53.937,67.890 51.784 C 69.694 50.843,126.293 50.922,128.287 51.868 M128.247 78.249 C 132.315 80.179,132.315 86.221,128.247 88.151 C 126.697 88.886,70.187 89.161,68.326 88.442 C 63.739 86.671,63.477 80.486,67.890 78.184 C 69.664 77.259,126.289 77.320,128.247 78.249 M128.388 104.594 C 132.256 106.594,132.139 112.980,128.204 114.624 C 125.962 115.561,69.701 115.475,67.713 114.532 C 63.658 112.608,63.762 106.737,67.890 104.584 C 69.576 103.705,126.687 103.714,128.388 104.594 M297.578 139.500 L 296.200 141.000 297.700 139.622 C 299.096 138.338,299.384 138.000,299.078 138.000 C 299.012 138.000,298.337 138.675,297.578 139.500 M173.133 180.682 C 169.658 182.843,169.742 187.435,173.296 189.602 C 174.585 190.388,175.474 190.397,252.841 190.399 L 331.082 190.400 332.435 189.488 C 335.224 187.608,335.607 183.823,333.247 181.463 L 331.985 180.200 253.092 180.109 C 180.193 180.025,174.119 180.068,173.133 180.682 M173.296 209.598 C 169.965 211.629,169.559 215.355,172.391 217.910 C 173.916 219.286,169.981 219.228,253.492 219.110 L 331.985 219.000 333.247 217.737 C 335.607 215.377,335.224 211.592,332.435 209.712 L 331.082 208.800 252.841 208.801 C 175.474 208.803,174.585 208.812,173.296 209.598 M115.680 234.040 C 128.172 236.631,129.502 253.520,117.600 258.423 C 116.451 258.897,112.937 259.000,98.000 259.000 L 79.800 259.000 77.800 258.017 C 66.739 252.578,68.079 237.448,79.910 234.192 C 82.384 233.511,112.514 233.383,115.680 234.040 M173.189 238.500 C 169.253 241.165,169.735 246.052,174.119 247.923 C 174.973 248.287,193.620 248.400,252.864 248.400 L 330.491 248.400 332.012 247.545 C 335.936 245.340,335.730 239.868,331.659 238.167 C 330.504 237.684,318.727 237.600,252.410 237.600 L 174.518 237.600 173.189 238.500 M213.249 266.950 C 208.957 268.502,208.728 274.494,212.879 276.641 C 214.492 277.475,290.979 277.475,292.587 276.641 C 296.552 274.583,296.581 269.127,292.637 267.218 C 290.565 266.215,215.977 265.963,213.249 266.950 M219.314 335.970 C 214.633 336.747,213.286 342.207,217.046 345.165 L 218.108 346.000 274.868 346.000 C 326.920 346.000,331.712 345.945,332.635 345.341 C 335.564 343.421,335.501 338.580,332.520 336.559 C 331.360 335.773,223.876 335.213,219.314 335.970 M116.290 344.966 C 128.600 348.243,128.779 365.290,116.543 369.002 C 114.101 369.743,82.215 369.886,79.960 369.166 C 67.197 365.094,67.225 348.309,80.000 344.851 C 82.375 344.208,113.817 344.308,116.290 344.966 M238.357 364.996 C 235.750 366.420,234.962 370.651,236.905 372.800 C 238.801 374.898,236.420 374.800,285.335 374.800 L 331.082 374.800 332.435 373.888 C 335.224 372.008,335.607 368.223,333.248 365.863 L 331.985 364.600 285.692 364.513 C 246.284 364.439,239.245 364.511,238.357 364.996 " stroke="none" fill="#83a5fa" fill-rule="evenodd"></path><path id="path1" d="M231.200 112.783 C 230.650 112.959,229.390 113.342,228.400 113.635 C 218.489 116.567,211.215 125.680,209.821 136.913 L 209.335 140.826 210.368 141.876 C 211.603 143.132,219.132 148.801,219.994 149.124 C 220.327 149.249,221.410 149.824,222.400 150.401 C 242.359 162.043,271.575 160.027,290.583 145.696 C 296.526 141.216,296.638 140.940,295.236 134.150 C 293.067 123.640,285.485 115.746,274.880 112.957 C 272.507 112.333,233.098 112.176,231.200 112.783 M79.800 234.361 C 70.602 236.672,67.243 248.380,73.875 255.012 C 77.630 258.767,76.462 258.584,97.531 258.715 L 116.062 258.830 118.149 257.875 C 127.911 253.405,128.272 240.518,118.784 235.200 L 117.000 234.200 99.000 234.130 C 89.100 234.091,80.460 234.195,79.800 234.361 " stroke="none" fill="#fadb4e" fill-rule="evenodd"></path><path id="path2" d="M64.400 4.696 C 114.641 4.970,150.800 4.971,150.800 4.700 C 150.800 4.535,127.085 4.443,98.100 4.496 C 69.115 4.549,53.950 4.639,64.400 4.696 M247.200 31.032 C 243.553 31.456,239.598 32.131,237.600 32.673 C 236.390 33.001,234.860 33.411,234.200 33.583 C 233.153 33.857,231.547 34.432,228.600 35.588 C 226.499 36.412,222.027 38.681,220.528 39.683 C 219.608 40.297,218.678 40.800,218.461 40.800 C 218.244 40.800,218.007 40.947,217.933 41.128 C 217.860 41.308,216.630 42.238,215.200 43.194 C 211.152 45.900,203.441 53.917,200.291 58.694 C 183.643 83.946,185.999 115.195,206.231 137.500 C 209.487 141.089,209.436 141.094,209.778 137.176 C 210.720 126.381,218.491 116.558,228.400 113.637 C 229.390 113.345,230.722 112.948,231.360 112.753 C 233.413 112.128,272.422 112.311,274.880 112.957 C 287.080 116.166,295.846 127.135,296.011 139.400 L 296.033 141.000 298.916 137.968 C 304.088 132.531,308.256 126.265,311.002 119.800 C 312.244 116.876,312.343 116.615,313.120 114.200 C 316.943 102.327,317.441 88.574,314.404 78.800 C 314.233 78.250,313.874 76.990,313.607 76.000 C 313.340 75.010,312.960 73.887,312.761 73.505 C 312.562 73.123,312.400 72.626,312.400 72.401 C 312.400 71.687,309.501 65.454,307.749 62.400 C 303.097 54.293,294.002 45.006,285.906 40.097 C 282.767 38.193,276.663 35.200,275.919 35.200 C 275.612 35.200,275.189 35.049,274.980 34.863 C 272.543 32.704,254.379 30.199,247.200 31.032 M80.000 344.851 C 67.225 348.309,67.197 365.094,79.960 369.166 C 82.215 369.886,114.101 369.743,116.543 369.002 C 128.779 365.290,128.600 348.243,116.290 344.966 C 113.817 344.308,82.375 344.208,80.000 344.851 " stroke="none" fill="#f3f3fb" fill-rule="evenodd"></path><path id="path3" d="M201.700 4.700 C 229.805 4.757,275.795 4.757,303.900 4.700 C 332.005 4.643,309.010 4.597,252.800 4.597 C 196.590 4.597,173.595 4.643,201.700 4.700 M151.200 200.000 L 151.200 394.800 253.200 394.800 L 355.200 394.800 355.200 200.000 L 355.200 5.200 253.200 5.200 L 151.200 5.200 151.200 200.000 M68.400 25.715 C 64.444 27.540,64.185 33.027,67.962 34.981 C 69.675 35.866,126.214 35.923,127.921 35.041 C 131.938 32.964,131.911 27.811,127.874 25.797 C 126.312 25.018,70.080 24.940,68.400 25.715 M263.398 31.032 C 268.368 31.901,273.937 33.432,275.695 34.413 C 276.077 34.626,276.617 34.805,276.895 34.810 C 278.268 34.838,290.305 41.681,291.600 43.170 C 291.710 43.296,292.700 44.114,293.800 44.987 C 296.663 47.260,301.180 51.926,303.366 54.871 C 304.399 56.262,305.460 57.684,305.722 58.030 C 306.184 58.639,306.647 59.405,307.700 61.300 C 307.975 61.795,308.290 62.290,308.400 62.400 C 308.510 62.510,308.797 62.960,309.038 63.400 C 309.278 63.840,309.680 64.560,309.931 65.000 C 310.792 66.510,312.800 71.220,312.800 71.730 C 312.800 72.011,312.949 72.411,313.130 72.620 C 313.312 72.829,313.693 73.810,313.977 74.800 C 314.261 75.790,314.639 77.050,314.817 77.600 C 315.139 78.593,315.552 80.485,316.409 84.896 C 317.490 90.458,316.903 102.183,315.171 109.600 C 314.940 110.590,314.651 111.897,314.529 112.505 C 314.407 113.113,314.149 113.708,313.954 113.829 C 313.759 113.949,313.600 114.399,313.600 114.829 C 313.600 115.259,313.441 115.923,313.247 116.305 C 313.052 116.687,312.714 117.450,312.495 118.000 C 308.555 127.879,298.855 140.660,291.727 145.364 C 290.887 145.918,289.443 146.907,288.519 147.563 C 286.970 148.661,283.619 150.602,281.200 151.800 C 277.431 153.668,276.641 154.000,275.962 154.000 C 275.543 154.000,275.200 154.180,275.200 154.400 C 275.200 154.620,274.761 154.800,274.224 154.800 C 273.687 154.800,273.136 154.980,273.000 155.200 C 272.864 155.420,272.324 155.600,271.800 155.600 C 271.276 155.600,270.736 155.780,270.600 156.000 C 270.464 156.220,269.769 156.400,269.056 156.400 C 268.343 156.400,267.589 156.562,267.380 156.759 C 266.983 157.134,265.892 157.319,259.600 158.075 C 253.944 158.755,242.702 158.413,242.166 157.545 C 242.049 157.355,241.164 157.200,240.200 157.200 C 239.236 157.200,238.336 157.020,238.200 156.800 C 238.064 156.580,237.344 156.400,236.600 156.400 C 235.856 156.400,235.136 156.220,235.000 156.000 C 234.864 155.780,234.401 155.600,233.971 155.600 C 233.541 155.600,232.832 155.420,232.395 155.200 C 231.958 154.980,231.242 154.620,230.805 154.400 C 230.368 154.180,229.757 154.000,229.446 154.000 C 229.135 154.000,227.855 153.460,226.600 152.800 C 225.345 152.140,224.067 151.600,223.759 151.600 C 223.452 151.600,223.200 151.464,223.200 151.298 C 223.200 151.131,222.615 150.737,221.900 150.422 C 212.888 146.447,201.036 134.172,195.615 123.200 C 194.473 120.890,193.373 118.687,193.170 118.305 C 192.966 117.923,192.800 117.259,192.800 116.829 C 192.800 116.399,192.620 115.936,192.400 115.800 C 192.180 115.664,192.000 115.124,192.000 114.600 C 192.000 114.076,191.820 113.536,191.600 113.400 C 191.380 113.264,191.200 112.724,191.200 112.200 C 191.200 111.676,191.039 111.148,190.842 111.026 C 190.645 110.905,190.384 110.129,190.261 109.303 C 190.138 108.476,189.815 106.630,189.543 105.200 C 188.889 101.766,188.889 87.034,189.543 83.600 C 189.815 82.170,190.138 80.324,190.261 79.497 C 190.384 78.671,190.645 77.895,190.842 77.774 C 191.039 77.652,191.200 77.034,191.200 76.400 C 191.200 75.766,191.380 75.136,191.600 75.000 C 191.820 74.864,192.000 74.401,192.000 73.971 C 192.000 73.541,192.159 72.877,192.353 72.495 C 192.548 72.113,192.886 71.350,193.106 70.800 C 197.033 60.958,203.492 52.006,211.400 45.446 C 215.925 41.692,218.849 39.600,219.572 39.600 C 219.807 39.600,220.001 39.465,220.003 39.300 C 220.005 39.135,220.410 38.807,220.903 38.571 C 221.396 38.335,222.700 37.677,223.800 37.110 C 229.319 34.262,234.559 32.484,241.200 31.207 C 246.286 30.228,258.263 30.134,263.398 31.032 M67.954 52.399 C 64.588 54.178,64.329 58.905,67.480 61.041 C 68.555 61.770,69.789 61.800,98.274 61.800 L 127.948 61.800 129.111 60.685 C 131.910 58.004,131.341 53.928,127.921 52.159 C 125.984 51.157,69.879 51.382,67.954 52.399 M66.873 79.532 C 64.609 81.647,64.836 85.515,67.329 87.293 L 68.600 88.200 96.200 88.323 C 111.380 88.391,124.747 88.333,125.904 88.194 C 130.843 87.601,132.646 82.656,129.075 79.500 L 127.830 78.400 97.957 78.400 L 68.085 78.400 66.873 79.532 M69.229 104.686 C 65.852 105.339,64.265 108.870,65.943 111.997 C 67.496 114.894,65.692 114.738,98.041 114.771 L 127.082 114.800 128.441 113.885 C 131.604 111.755,131.715 107.690,128.671 105.436 C 127.592 104.637,73.041 103.949,69.229 104.686 M333.600 181.200 C 335.111 182.711,335.200 182.933,335.200 185.200 C 335.200 187.467,335.111 187.689,333.600 189.200 L 332.000 190.800 252.938 190.800 L 173.876 190.800 172.537 189.779 C 169.184 187.222,169.164 183.262,172.492 180.640 L 173.800 179.609 252.900 179.604 L 332.000 179.600 333.600 181.200 M333.600 210.000 C 335.998 212.398,335.991 215.771,333.583 218.062 L 331.966 219.600 252.945 219.600 C 164.694 219.600,172.574 219.870,170.838 216.782 C 169.341 214.118,169.942 211.449,172.492 209.440 L 173.800 208.409 252.900 208.404 L 332.000 208.400 333.600 210.000 M332.592 238.048 C 336.273 240.220,336.151 245.844,332.376 247.965 L 330.880 248.806 252.340 248.703 L 173.800 248.600 172.524 247.690 C 169.052 245.213,169.243 240.225,172.896 237.998 C 174.185 237.212,175.075 237.203,252.677 237.201 L 331.154 237.200 332.592 238.048 M292.023 266.400 C 297.046 267.795,297.594 274.464,292.901 277.100 C 291.678 277.787,213.985 277.834,212.704 277.149 C 207.868 274.561,208.294 268.009,213.400 266.441 C 215.074 265.926,290.178 265.887,292.023 266.400 M331.674 335.558 C 333.980 336.448,335.200 338.332,335.200 341.000 C 335.200 343.668,333.980 345.552,331.674 346.442 C 331.145 346.646,306.765 346.800,274.874 346.799 C 212.946 346.799,217.423 346.989,215.428 344.271 C 213.516 341.664,214.629 337.430,217.628 335.901 C 219.163 335.118,329.676 334.786,331.674 335.558 M333.583 365.538 C 335.991 367.829,335.998 371.202,333.600 373.600 L 332.000 375.200 285.594 375.200 L 239.189 375.200 237.799 374.300 C 234.568 372.208,234.310 367.900,237.250 365.153 L 238.485 364.000 285.225 364.000 L 331.966 364.000 333.583 365.538 " stroke="none" fill="#4c5484" fill-rule="evenodd"></path><path id="path4" d="M150.900 199.900 L 150.999 395.000 151.100 200.101 L 151.201 5.202 253.100 5.100 L 355.000 4.998 252.900 4.899 L 150.800 4.800 150.900 199.900 M67.755 25.562 C 64.885 27.312,63.935 30.776,65.584 33.481 C 67.190 36.115,65.692 36.000,98.363 36.000 L 127.966 36.000 129.583 34.462 C 130.780 33.323,131.192 32.622,131.168 31.762 L 131.137 30.600 130.716 31.800 C 130.189 33.303,129.310 34.322,127.921 35.041 C 126.214 35.923,69.675 35.866,67.962 34.981 C 64.122 32.995,64.453 27.474,68.519 25.691 C 70.343 24.891,126.258 24.991,127.874 25.797 C 129.364 26.540,130.174 27.454,130.716 29.000 C 131.021 29.869,131.145 29.980,131.167 29.400 C 131.214 28.157,129.802 26.159,128.373 25.446 C 126.210 24.368,69.537 24.476,67.755 25.562 M241.200 31.207 C 234.559 32.484,229.319 34.262,223.800 37.110 C 222.700 37.677,221.396 38.335,220.903 38.571 C 220.410 38.807,220.005 39.135,220.003 39.300 C 220.001 39.465,219.807 39.600,219.572 39.600 C 218.849 39.600,215.925 41.692,211.400 45.446 C 203.492 52.006,197.033 60.958,193.106 70.800 C 192.886 71.350,192.548 72.113,192.353 72.495 C 192.159 72.877,192.000 73.541,192.000 73.971 C 192.000 74.401,191.820 74.864,191.600 75.000 C 191.380 75.136,191.200 75.766,191.200 76.400 C 191.200 77.034,191.039 77.652,190.842 77.774 C 190.645 77.895,190.384 78.671,190.261 79.497 C 190.138 80.324,189.815 82.170,189.543 83.600 C 188.889 87.034,188.889 101.766,189.543 105.200 C 189.815 106.630,190.138 108.476,190.261 109.303 C 190.384 110.129,190.645 110.905,190.842 111.026 C 191.039 111.148,191.200 111.676,191.200 112.200 C 191.200 112.724,191.399 113.276,191.643 113.426 C 191.931 113.605,192.005 113.438,191.856 112.950 C 182.833 83.504,197.646 49.407,224.800 37.118 C 229.138 35.155,230.142 34.749,232.840 33.870 C 235.517 32.997,236.807 32.647,240.600 31.767 C 241.260 31.613,243.870 31.266,246.400 30.994 C 250.854 30.516,250.905 30.500,248.000 30.488 C 246.350 30.481,243.290 30.804,241.200 31.207 M259.200 30.994 C 261.730 31.266,264.340 31.613,265.000 31.767 C 269.004 32.696,270.149 33.013,273.400 34.093 C 286.599 38.478,300.120 49.107,306.630 60.216 C 307.217 61.217,307.785 61.948,307.892 61.841 C 308.000 61.734,307.708 61.113,307.244 60.461 C 306.780 59.810,306.400 59.171,306.400 59.043 C 306.400 58.914,306.140 58.492,305.822 58.105 C 305.505 57.717,304.399 56.262,303.366 54.871 C 301.180 51.926,296.663 47.260,293.800 44.987 C 292.700 44.114,291.710 43.296,291.600 43.170 C 290.305 41.681,278.268 34.838,276.895 34.810 C 276.617 34.805,276.077 34.626,275.695 34.413 C 272.596 32.684,261.771 30.366,257.200 30.451 C 254.902 30.494,255.135 30.557,259.200 30.994 M67.890 51.784 C 63.762 53.937,63.658 59.808,67.713 61.732 C 69.734 62.691,126.543 62.760,128.388 61.806 C 129.851 61.049,131.212 59.150,131.159 57.938 C 131.124 57.138,131.058 57.187,130.709 58.273 C 130.484 58.974,129.770 60.054,129.124 60.673 L 127.948 61.800 98.274 61.800 C 69.789 61.800,68.555 61.770,67.480 61.041 C 64.283 58.874,64.589 54.140,68.039 52.380 C 70.059 51.350,125.957 51.143,127.921 52.159 C 129.310 52.878,130.189 53.897,130.716 55.400 C 131.021 56.269,131.145 56.380,131.167 55.800 C 131.215 54.512,129.807 52.589,128.287 51.868 C 126.293 50.922,69.694 50.843,67.890 51.784 M309.573 65.500 C 312.303 70.918,314.066 75.928,315.170 81.400 C 316.211 86.563,316.399 88.562,316.393 94.367 C 316.369 114.612,307.317 132.910,291.300 145.091 C 289.705 146.304,288.400 147.387,288.400 147.497 C 288.400 147.607,288.805 147.404,289.300 147.045 C 289.795 146.685,290.887 145.934,291.727 145.374 C 298.916 140.582,308.557 127.874,312.495 118.000 C 312.714 117.450,313.052 116.687,313.247 116.305 C 313.441 115.923,313.600 115.259,313.600 114.829 C 313.600 114.399,313.759 113.949,313.954 113.829 C 314.149 113.708,314.407 113.113,314.529 112.505 C 314.651 111.897,314.940 110.590,315.171 109.600 C 316.903 102.183,317.490 90.458,316.409 84.896 C 315.552 80.485,315.139 78.593,314.817 77.600 C 314.639 77.050,314.261 75.790,313.977 74.800 C 313.693 73.810,313.312 72.829,313.130 72.620 C 312.949 72.411,312.800 72.011,312.800 71.730 C 312.800 71.132,310.664 66.250,309.768 64.800 C 309.429 64.250,309.051 63.485,308.929 63.100 C 308.807 62.715,308.550 62.400,308.359 62.400 C 308.167 62.400,308.713 63.795,309.573 65.500 M67.890 78.184 C 63.477 80.486,63.739 86.671,68.326 88.442 C 70.187 89.161,126.697 88.886,128.247 88.151 C 129.879 87.376,131.212 85.638,131.170 84.338 C 131.144 83.554,131.059 83.622,130.650 84.751 C 129.271 88.563,130.120 88.475,96.200 88.323 L 68.600 88.200 67.310 87.280 C 64.714 85.429,64.639 81.024,67.172 79.220 C 68.308 78.411,68.720 78.400,98.062 78.402 L 127.800 78.404 128.980 79.348 C 129.629 79.867,130.380 80.901,130.649 81.646 C 131.058 82.776,131.144 82.845,131.170 82.062 C 131.212 80.762,129.879 79.024,128.247 78.249 C 126.289 77.320,69.664 77.259,67.890 78.184 M67.890 104.584 C 63.762 106.737,63.658 112.608,67.713 114.532 C 69.701 115.475,125.962 115.561,128.204 114.624 C 129.676 114.009,131.216 111.917,131.167 110.600 C 131.145 110.020,131.021 110.131,130.716 111.000 C 130.189 112.503,129.310 113.522,127.921 114.241 C 126.119 115.173,69.447 115.004,67.843 114.062 C 64.601 112.158,64.404 107.444,67.480 105.359 C 68.623 104.584,121.485 103.905,126.307 104.604 C 128.345 104.899,129.980 106.196,130.650 108.049 C 131.059 109.178,131.144 109.246,131.170 108.462 C 131.209 107.244,129.845 105.347,128.388 104.594 C 126.687 103.714,69.576 103.705,67.890 104.584 M192.028 114.676 C 192.013 115.158,192.180 115.664,192.400 115.800 C 192.873 116.092,192.873 115.701,192.400 114.600 C 192.069 113.829,192.055 113.831,192.028 114.676 M192.827 116.905 C 192.812 117.293,192.966 117.923,193.170 118.305 C 193.373 118.687,194.473 120.890,195.615 123.200 C 198.824 129.696,207.931 141.600,209.691 141.600 C 209.864 141.600,208.774 140.347,207.270 138.815 C 201.276 132.714,197.656 127.115,193.294 117.200 C 192.972 116.469,192.847 116.389,192.827 116.905 M211.499 143.302 C 213.451 144.995,216.041 146.972,216.800 147.349 C 217.382 147.637,217.013 147.323,212.520 143.700 C 210.039 141.700,209.335 141.425,211.499 143.302 M287.000 148.149 C 286.560 148.407,285.780 148.854,285.266 149.142 C 284.752 149.429,284.420 149.753,284.528 149.861 C 284.736 150.070,288.000 148.127,288.000 147.795 C 288.000 147.560,288.003 147.559,287.000 148.149 M281.600 151.200 C 280.390 151.839,279.602 152.371,279.850 152.381 C 280.331 152.401,284.000 150.443,284.000 150.166 C 284.000 149.930,284.023 149.920,281.600 151.200 M232.600 155.200 C 232.736 155.420,233.242 155.587,233.724 155.572 C 234.569 155.545,234.571 155.531,233.800 155.200 C 232.699 154.727,232.308 154.727,232.600 155.200 M271.800 155.200 C 271.029 155.531,271.031 155.545,271.876 155.572 C 272.358 155.587,272.864 155.420,273.000 155.200 C 273.292 154.727,272.901 154.727,271.800 155.200 M235.000 156.000 C 235.136 156.220,235.732 156.387,236.324 156.372 C 237.285 156.347,237.314 156.307,236.600 156.000 C 235.489 155.522,234.705 155.522,235.000 156.000 M269.000 156.000 C 268.286 156.307,268.315 156.347,269.276 156.372 C 269.868 156.387,270.464 156.220,270.600 156.000 C 270.895 155.522,270.111 155.522,269.000 156.000 M238.200 156.800 C 238.336 157.020,239.022 157.182,239.724 157.160 C 240.943 157.122,240.955 157.106,240.000 156.800 C 238.564 156.340,237.916 156.340,238.200 156.800 M265.600 156.800 C 264.645 157.106,264.657 157.122,265.876 157.160 C 266.578 157.182,267.264 157.020,267.400 156.800 C 267.684 156.340,267.036 156.340,265.600 156.800 M242.211 157.617 C 242.341 157.828,243.367 158.000,244.490 158.000 C 247.027 158.000,246.863 157.787,244.087 157.473 C 242.783 157.326,242.065 157.381,242.211 157.617 M260.600 157.600 L 258.600 157.874 260.800 157.931 C 262.010 157.962,263.270 157.813,263.600 157.600 C 264.295 157.151,263.876 157.151,260.600 157.600 M249.400 158.400 C 250.060 158.568,251.680 158.705,253.000 158.705 C 254.320 158.705,255.940 158.568,256.600 158.400 C 257.347 158.210,255.989 158.095,253.000 158.095 C 250.011 158.095,248.653 158.210,249.400 158.400 M172.492 180.640 C 169.164 183.262,169.184 187.222,172.537 189.779 L 173.876 190.800 252.938 190.800 L 332.000 190.800 333.600 189.200 C 335.111 187.689,335.200 187.467,335.200 185.200 C 335.200 182.933,335.111 182.711,333.600 181.200 L 332.000 179.600 252.900 179.604 L 173.800 179.609 172.492 180.640 M333.247 181.463 C 335.607 183.823,335.224 187.608,332.435 189.488 L 331.082 190.400 252.841 190.399 C 175.474 190.397,174.585 190.388,173.296 189.602 C 170.584 187.948,169.800 185.376,171.233 182.827 C 172.967 179.742,164.987 180.007,253.092 180.109 L 331.985 180.200 333.247 181.463 M172.492 209.440 C 169.942 211.449,169.341 214.118,170.838 216.782 C 172.574 219.870,164.694 219.600,252.945 219.600 L 331.966 219.600 333.583 218.062 C 335.991 215.771,335.998 212.398,333.600 210.000 L 332.000 208.400 252.900 208.404 L 173.800 208.409 172.492 209.440 M332.435 209.712 C 335.224 211.592,335.607 215.377,333.247 217.737 L 331.985 219.000 253.492 219.110 C 169.981 219.228,173.916 219.286,172.391 217.910 C 169.559 215.355,169.965 211.629,173.296 209.598 C 174.585 208.812,175.474 208.803,252.841 208.801 L 331.082 208.800 332.435 209.712 M89.700 233.900 C 94.265 233.964,101.735 233.964,106.300 233.900 C 110.865 233.835,107.130 233.783,98.000 233.783 C 88.870 233.783,85.135 233.835,89.700 233.900 M172.896 237.998 C 169.243 240.225,169.052 245.213,172.524 247.690 L 173.800 248.600 252.340 248.703 L 330.880 248.806 332.376 247.965 C 336.151 245.844,336.273 240.220,332.592 238.048 L 331.154 237.200 252.677 237.201 C 175.075 237.203,174.185 237.212,172.896 237.998 M331.659 238.167 C 335.730 239.868,335.936 245.340,332.012 247.545 L 330.491 248.400 252.864 248.400 C 193.620 248.400,174.973 248.287,174.119 247.923 C 169.735 246.052,169.253 241.165,173.189 238.500 L 174.518 237.600 252.410 237.600 C 318.727 237.600,330.504 237.684,331.659 238.167 M125.728 246.400 C 125.728 247.830,125.801 248.415,125.889 247.700 C 125.978 246.985,125.978 245.815,125.889 245.100 C 125.801 244.385,125.728 244.970,125.728 246.400 M89.500 259.100 C 94.175 259.164,101.825 259.164,106.500 259.100 C 111.175 259.036,107.350 258.983,98.000 258.983 C 88.650 258.983,84.825 259.036,89.500 259.100 M213.400 266.441 C 208.294 268.009,207.868 274.561,212.704 277.149 C 213.985 277.834,291.678 277.787,292.901 277.100 C 297.594 274.464,297.046 267.795,292.023 266.400 C 290.178 265.887,215.074 265.926,213.400 266.441 M292.637 267.218 C 296.581 269.127,296.552 274.583,292.587 276.641 C 290.979 277.475,214.492 277.475,212.879 276.641 C 208.728 274.494,208.957 268.502,213.249 266.950 C 215.977 265.963,290.565 266.215,292.637 267.218 M217.628 335.901 C 215.500 336.986,214.600 338.501,214.600 341.000 C 214.600 343.499,215.500 345.014,217.628 346.099 C 219.163 346.882,329.676 347.214,331.674 346.442 C 333.980 345.552,335.200 343.668,335.200 341.000 C 335.200 338.332,333.980 336.448,331.674 335.558 C 329.676 334.786,219.163 335.118,217.628 335.901 M332.520 336.559 C 335.501 338.580,335.564 343.421,332.635 345.341 C 331.712 345.945,326.920 346.000,274.868 346.000 L 218.108 346.000 217.046 345.165 C 213.286 342.207,214.633 336.747,219.314 335.970 C 223.876 335.213,331.360 335.773,332.520 336.559 M237.250 365.153 C 234.310 367.900,234.568 372.208,237.799 374.300 L 239.189 375.200 285.594 375.200 L 332.000 375.200 333.600 373.600 C 335.998 371.202,335.991 367.829,333.583 365.538 L 331.966 364.000 285.225 364.000 L 238.485 364.000 237.250 365.153 M333.248 365.863 C 335.607 368.223,335.224 372.008,332.435 373.888 L 331.082 374.800 285.335 374.800 C 236.420 374.800,238.801 374.898,236.905 372.800 C 235.608 371.365,235.491 368.349,236.662 366.562 C 238.138 364.309,235.503 364.419,285.692 364.513 L 331.985 364.600 333.248 365.863 " stroke="none" fill="#697aad" fill-rule="evenodd"></path></g></svg>